# xmcd
#
# Track frame offsets:
#        150
#        81615
#        118780
#        141895
#        204245
#        219907
#        242972
#
# Disc length: 3615 seconds
#
# Revision: 0
# Processed by: cddbd v1.5.1PL0 Copyright (c) Steve Scherf et al.
# Submitted via: ExactAudioCopy v0.95a5
#
DISCID=660e1d07
DTITLE=William Kraft - Percussion by William Kraft
DYEAR=1970
DGENRE=Classical
TTITLE0=Triangles
TTITLE1=Theme and Viriations
TTITLE2=Momentum
TTITLE3=Soliloquy
TTITLE4=Quartet for Percussion-Sectral Dance
TTITLE5=Quartet for Percussion-Mists
TTITLE6=Quartet for Percussion-Mistral
EXTD=
EXTT0=
EXTT1=
EXTT2=
EXTT3=
EXTT4=
EXTT5=
EXTT6=
PLAYORDER=
